<svg width="20" height="21" viewBox="0 0 20 21" fill="none" xmlns="http://www.w3.org/2000/svg">
<path d="M17.5 9.22719V16.4498C17.5 16.7814 17.3683 17.0993 17.1339 17.3337C16.8995 17.5681 16.5815 17.6998 16.25 17.6998H13.125C12.7935 17.6998 12.4755 17.5681 12.2411 17.3337C12.0067 17.0993 11.875 16.7814 11.875 16.4498V13.3248C11.875 13.1591 11.8092 13.0001 11.6919 12.8829C11.5747 12.7657 11.4158 12.6998 11.25 12.6998H8.75C8.58424 12.6998 8.42527 12.7657 8.30806 12.8829C8.19085 13.0001 8.125 13.1591 8.125 13.3248V16.4498C8.125 16.7814 7.9933 17.0993 7.75888 17.3337C7.52446 17.5681 7.20652 17.6998 6.875 17.6998H3.75C3.41848 17.6998 3.10054 17.5681 2.86612 17.3337C2.6317 17.0993 2.5 16.7814 2.5 16.4498V9.22719C2.49997 9.05419 2.53586 8.88306 2.60538 8.72465C2.67491 8.56623 2.77656 8.42397 2.90391 8.30687L9.15391 2.41L9.1625 2.40141C9.39261 2.19213 9.69248 2.07617 10.0035 2.07617C10.3146 2.07617 10.6144 2.19213 10.8445 2.40141C10.8472 2.40446 10.8501 2.40733 10.8531 2.41L17.1031 8.30687C17.2292 8.42459 17.3295 8.56713 17.3978 8.72551C17.4661 8.8839 17.5009 9.05471 17.5 9.22719Z" fill="#CCFBEF"/>
</svg>
