<svg width="20" height="21" viewBox="0 0 20 21" fill="none" xmlns="http://www.w3.org/2000/svg">
<path d="M18 17.3243C18.0699 17.4171 18.1125 17.5276 18.123 17.6433C18.1336 17.759 18.1116 17.8754 18.0597 17.9794C18.0078 18.0833 17.9279 18.1707 17.829 18.2318C17.7301 18.2929 17.6162 18.3251 17.5 18.325H2.5C2.38393 18.325 2.27015 18.2927 2.17142 18.2317C2.07268 18.1707 1.99289 18.0834 1.94098 17.9795C1.88908 17.8757 1.8671 17.7595 1.87753 17.6439C1.88795 17.5283 1.93036 17.4179 2 17.325C2.55343 16.5831 3.29142 15.9988 4.14063 15.6305C3.67514 15.2057 3.34898 14.65 3.20496 14.0365C3.06094 13.4229 3.10579 12.7802 3.33362 12.1926C3.56145 11.605 3.96161 11.1 4.48159 10.744C5.00157 10.3879 5.61705 10.1973 6.24727 10.1973C6.87748 10.1973 7.49297 10.3879 8.01294 10.744C8.53292 11.1 8.93308 11.605 9.16091 12.1926C9.38874 12.7802 9.43359 13.4229 9.28957 14.0365C9.14555 14.65 8.81939 15.2057 8.35391 15.6305C8.96658 15.8953 9.52333 16.2742 9.99453 16.7469C10.4657 16.2742 11.0225 15.8953 11.6352 15.6305C11.1697 15.2057 10.8435 14.65 10.6995 14.0365C10.5555 13.4229 10.6003 12.7802 10.8281 12.1926C11.056 11.605 11.4561 11.1 11.9761 10.744C12.4961 10.3879 13.1116 10.1973 13.7418 10.1973C14.372 10.1973 14.9875 10.3879 15.5075 10.744C16.0274 11.1 16.4276 11.605 16.6554 12.1926C16.8833 12.7802 16.9281 13.4229 16.7841 14.0365C16.6401 14.65 16.3139 15.2057 15.8484 15.6305C16.7016 15.9969 17.4435 16.581 18 17.3243ZM2.125 10.075C2.19066 10.1243 2.26538 10.1601 2.34489 10.1805C2.4244 10.2009 2.50714 10.2054 2.58839 10.1938C2.66964 10.1821 2.74781 10.1547 2.81843 10.1128C2.88906 10.071 2.95075 10.0157 3 9.95004C3.37841 9.44549 3.86909 9.03598 4.43319 8.75393C4.9973 8.47188 5.61932 8.32504 6.25 8.32504C6.88068 8.32504 7.5027 8.47188 8.06681 8.75393C8.63091 9.03598 9.12159 9.44549 9.5 9.95004C9.55822 10.0277 9.63371 10.0907 9.72049 10.1341C9.80728 10.1774 9.90297 10.2 10 10.2C10.097 10.2 10.1927 10.1774 10.2795 10.1341C10.3663 10.0907 10.4418 10.0277 10.5 9.95004C10.8784 9.44549 11.3691 9.03598 11.9332 8.75393C12.4973 8.47188 13.1193 8.32504 13.75 8.32504C14.3807 8.32504 15.0027 8.47188 15.5668 8.75393C16.1309 9.03598 16.6216 9.44549 17 9.95004C17.0493 10.0157 17.111 10.071 17.1817 10.1128C17.2524 10.1546 17.3306 10.1821 17.4119 10.1936C17.4932 10.2052 17.5759 10.2007 17.6555 10.1802C17.735 10.1598 17.8097 10.1239 17.8754 10.0746C17.9411 10.0253 17.9964 9.9636 18.0382 9.89293C18.08 9.82226 18.1074 9.74405 18.119 9.66276C18.1306 9.58147 18.126 9.4987 18.1056 9.41917C18.0852 9.33964 18.0493 9.26492 18 9.19926C17.4466 8.45748 16.7085 7.87354 15.8594 7.50551C16.3249 7.08066 16.651 6.52501 16.795 5.91147C16.9391 5.29794 16.8942 4.65519 16.6664 4.0676C16.4386 3.48001 16.0384 2.97503 15.5184 2.61895C14.9984 2.26287 14.3829 2.07233 13.7527 2.07233C13.1225 2.07233 12.507 2.26287 11.9871 2.61895C11.4671 2.97503 11.0669 3.48001 10.8391 4.0676C10.6113 4.65519 10.5664 5.29794 10.7104 5.91147C10.8544 6.52501 11.1806 7.08066 11.6461 7.50551C11.0334 7.77033 10.4767 8.14919 10.0055 8.62191C9.53427 8.14919 8.97751 7.77033 8.36484 7.50551C8.83033 7.08066 9.15649 6.52501 9.30051 5.91147C9.44453 5.29794 9.39968 4.65519 9.17185 4.0676C8.94402 3.48001 8.54386 2.97503 8.02388 2.61895C7.5039 2.26287 6.88842 2.07233 6.2582 2.07233C5.62799 2.07233 5.0125 2.26287 4.49253 2.61895C3.97255 2.97503 3.57239 3.48001 3.34456 4.0676C3.11673 4.65519 3.07188 5.29794 3.2159 5.91147C3.35992 6.52501 3.68608 7.08066 4.15156 7.50551C3.29838 7.87222 2.55645 8.45655 2 9.20004C1.95075 9.2657 1.91492 9.34042 1.89455 9.41992C1.87418 9.49943 1.86967 9.58217 1.88128 9.66343C1.89289 9.74468 1.92039 9.82285 1.9622 9.89347C2.00402 9.96409 2.05934 10.0258 2.125 10.075Z" fill="#CCFBEF"/>
</svg>
